<?xml version="1.0" encoding="utf-8"?>
<!-- Generator: Adobe Illustrator 19.2.1, SVG Export Plug-In . SVG Version: 6.00 Build 0)  -->
<svg version="1.1" id="layer" xmlns="http://www.w3.org/2000/svg" xmlns:xlink="http://www.w3.org/1999/xlink" x="0px" y="0px"
	 viewBox="0 0 652 652" style="enable-background:new 0 0 652 652;" xml:space="preserve">
<style type="text/css">
	.st0{fill:none;stroke:#F15A29;stroke-width:18.2081;}
</style>
<path class="st0" d="M151.8,451.6c-69.2,0-125.3-56.1-125.3-125.3c0-69.2,56.1-125.3,125.3-125.3 M87.3,403.8
	C44.6,368,39,304.3,74.9,261.6c35.8-42.7,99.4-48.2,142.1-12.4 M115.8,394c-37.3-19.7-51.6-66-32-103.4c19.7-37.3,66-51.6,103.4-32
	 M151.8,378.5c-28.8,0-52.1-23.3-52.1-52.1c0-28.8,23.3-52.1,52.1-52.1"/>
<path d="M375.9,250.2v110.7h16.6v-10.5h0.3c2.3,4.1,5.9,7.4,10.2,9.4c4.3,2,9,3,13.8,2.9c5.3,0,10.1-0.9,14.4-2.9
	c4.2-1.9,7.9-4.5,10.9-7.8c3.1-3.4,5.4-7.4,6.8-11.7c1.6-4.7,2.3-9.6,2.3-14.5c0-5.2-0.8-10-2.5-14.5c-1.5-4.3-3.9-8.3-6.9-11.7
	c-3-3.3-6.6-6-10.7-7.8c-4.1-1.9-8.7-2.9-13.7-2.9c-3.3,0-6.2,0.4-8.7,1c-2.5,0.7-4.8,1.6-6.7,2.6c-1.8,1-3.4,2.1-4.9,3.4
	c-1.2,1.1-2.3,2.3-3.3,3.6h-0.4v-49.4H375.9z M154.7,288.9c-5.2,0-10.2,0.9-14.8,2.6c-4.5,1.7-8.6,4.2-12.1,7.5
	c-3.4,3.3-6.2,7.3-8.1,11.6c-2,4.6-3,9.6-3,15.2c0,5.6,1,10.6,3,15.2c1.9,4.4,4.6,8.3,8.1,11.6c3.5,3.3,7.6,5.8,12.1,7.5
	c4.7,1.8,9.7,2.7,14.8,2.6c1.6,0,3.4-0.2,5.5-0.5c4.8-0.8,9.3-2.4,13.6-4.8c2.3-1.3,4.3-2.8,6-4.5l-11.6-12.6
	c-1.5,2.1-3.6,3.8-5.9,4.9c-2.4,1.1-4.9,1.7-7.6,1.7c-3.2,0-6-0.6-8.5-1.8c-4.9-2.2-8.7-6.3-10.5-11.4c-0.9-2.5-1.4-5.2-1.3-7.9
	c0-2.7,0.5-5.4,1.3-7.9c2.9-8,10.6-13.3,19.1-13.2c2.3,0,4.6,0.6,6.8,1.9c2.2,1.3,4.3,3,6.4,5.1l12.1-12.2
	c-3.2-3.6-7.3-6.4-11.8-8.1C163.9,289.8,159.3,288.9,154.7,288.9L154.7,288.9z M216,288.9c-5.2,0-10.2,0.9-14.8,2.6
	c-4.5,1.7-8.5,4.2-12.1,7.5c-3.4,3.3-6.2,7.3-8,11.6c-2,4.6-3,9.6-3,15.2c0,5.6,1,10.6,3,15.2c1.9,4.4,4.6,8.3,8,11.6
	c3.5,3.3,7.6,5.8,12.1,7.5c4.8,1.8,9.8,2.7,14.8,2.6c5.5,0,10.8-1.1,15.8-3.2c5-2.1,9.6-5.8,13.7-10.8l-12.5-9.5
	c-2.2,2.7-4.8,5-7.8,6.8c-3,1.8-6.6,2.7-11,2.7c-5,0-9.2-1.5-12.6-4.4c-3.5-2.9-5.5-7-6.1-12.3h53.1v-4.8c0-6.1-0.8-11.6-2.4-16.3
	c-1.6-4.7-3.8-8.7-6.7-11.9c-2.9-3.2-6.4-5.8-10.3-7.4C225,289.7,220.5,288.8,216,288.9L216,288.9z M294.5,288.9
	c-4.7,0-8.8,1.1-12.3,3.4c-3.6,2.3-6.3,5.4-8.3,9.5h-0.3v-11.1h-17.4v70.3h17.4v-37.6c0-1,0.2-2.4,0.7-4.4c0.5-2.1,1.4-4.1,2.6-5.9
	c1.5-2.1,3.4-3.9,5.7-5.2c2.5-1.5,5.8-2.3,9.8-2.3c1.3,0,2.7,0.1,4.1,0.4c1.4,0.2,2.8,0.6,4.3,0.9v-17c-1-0.3-2.1-0.5-3.1-0.7
	C296.6,289,295.6,288.9,294.5,288.9L294.5,288.9z M338.6,288.9c-5.2,0-10.2,0.9-14.8,2.6c-4.5,1.7-8.6,4.2-12,7.5
	c-3.4,3.3-6.2,7.3-8,11.6c-2,4.6-3,9.6-3,15.2c0,5.6,1,10.6,3,15.2c1.9,4.4,4.6,8.3,8,11.6c3.5,3.3,7.6,5.8,12,7.5
	c4.7,1.8,9.7,2.7,14.8,2.6c5.5,0,10.8-1.1,15.8-3.2c5-2.1,9.6-5.8,13.6-10.8l-12.5-9.5c-2.2,2.7-4.8,5-7.8,6.8
	c-3,1.8-6.6,2.7-11,2.7c-4.9,0-9.1-1.5-12.6-4.4c-3.5-2.9-5.5-7-6.1-12.3h53.1v-4.8c0-6.1-0.8-11.6-2.4-16.3
	c-1.6-4.7-3.8-8.7-6.7-11.9c-2.8-3.2-6.4-5.8-10.3-7.4C347.7,289.7,343.2,288.8,338.6,288.9L338.6,288.9z M497,288.9
	c-4.7,0-8.8,1.1-12.3,3.4c-3.6,2.3-6.3,5.4-8.3,9.5h-0.3v-11.1h-17.4v70.3h17.4v-37.6c0-1,0.2-2.4,0.6-4.4c0.5-2.1,1.4-4.1,2.6-5.9
	c1.5-2.1,3.4-3.9,5.7-5.2c2.5-1.5,5.8-2.3,9.8-2.3c1.3,0,2.7,0.1,4.1,0.4c1.4,0.2,2.8,0.6,4.3,0.9v-17c-1-0.3-2.1-0.5-3.1-0.7
	C499.1,289,498,288.9,497,288.9L497,288.9z M535.9,288.9c-5.5,0-10.9,0.9-16,2.6c-5.1,1.7-9.8,4.7-13.6,8.6l9.1,9.2
	c5-4.8,11.7-7.4,18.6-7.3c4.7,0,8.5,1.1,11.5,3.3c3,2.2,4.5,5.5,4.5,9.9v1.9h-4.4c-2.9,0-6,0.1-9.3,0.2c-3.3,0.2-6.6,0.5-9.8,1
	c-3.2,0.6-6.4,1.3-9.3,2.4c-2.9,1-5.6,2.5-7.9,4.3c-2.3,1.8-4.1,4.1-5.4,6.7c-1.3,2.7-2,5.9-2,9.7c0,3.5,0.7,6.6,2.2,9.2
	c1.4,2.6,3.4,4.8,5.8,6.6c2.4,1.8,5.2,3.2,8.1,4c3,0.9,6.2,1.3,9.3,1.3c4.6,0,8.9-0.9,12.8-2.7c3.9-1.8,7.1-4.7,9.6-8.7h0.5v9.6
	h15.7v-40.4c0-1.7-0.1-3.6-0.2-5.8c-0.1-2.3-0.4-4.6-0.9-6.8c-0.6-2.4-1.4-4.8-2.6-7c-1.3-2.4-3-4.4-5.1-6.1
	c-2.5-1.9-5.4-3.4-8.4-4.3C545,289.5,540.8,288.9,535.9,288.9L535.9,288.9z M599.6,288.9c-3.5,0-6.9,0.5-10.3,1.3
	c-3.2,0.8-6.3,2.2-9,4.1c-2.6,1.8-4.8,4.3-6.3,7.1c-1.6,2.9-2.4,6.3-2.4,10.2c0,4.5,0.9,8,2.8,10.5c1.8,2.5,4.1,4.5,6.9,5.9
	c2.9,1.4,5.9,2.5,9.1,3.1c3.3,0.6,6.2,1.3,9.1,2.1c2.4,0.6,4.8,1.5,7,2.9c1.8,1.2,2.7,3,2.7,5.4c0,1.3-0.4,2.5-1.1,3.6
	c-0.7,1-1.7,1.9-2.9,2.6c-1.2,0.7-2.4,1.2-3.8,1.5c-1.3,0.3-2.6,0.4-3.9,0.4c-3.7,0-6.8-0.8-9.4-2.4c-2.7-1.7-5.1-3.8-7.2-6.2
	l-11.6,11c3.6,4.1,7.7,6.9,12.2,8.5c4.8,1.6,9.9,2.4,14.9,2.3c3.6,0,7.2-0.4,10.8-1.2c3.4-0.7,6.6-2,9.6-3.8c2.8-1.7,5.2-4.1,7-6.9
	c1.8-2.9,2.7-6.4,2.7-10.6c0-4.6-0.9-8.2-2.8-10.9c-1.8-2.6-4.2-4.7-6.9-6.2c-2.9-1.5-5.9-2.7-9.1-3.4c-3.2-0.7-6.2-1.4-9.1-2.1
	c-2.4-0.6-4.8-1.4-7-2.5c-1.8-0.9-2.9-2.7-2.7-4.7c0-2.6,1.1-4.6,3.3-5.7c2.1-1.1,4.5-1.7,6.8-1.8c5.7,0,10.3,2.4,13.6,7.2
	l11.6-10.5c-2.7-3.9-6.6-6.7-11-8.3C609,289.8,604.3,288.9,599.6,288.9L599.6,288.9z M213.5,302.1c5.5,0,9.8,1.5,12.9,4.5
	c3.1,3,4.7,7,4.8,12.2h-35.7c0.7-5,2.5-9.1,5.6-12.1C204.2,303.6,208.3,302.1,213.5,302.1L213.5,302.1z M336.2,302.1
	c5.5,0,9.8,1.5,12.9,4.5c3.1,3,4.7,7,4.8,12.2h-35.7c0.7-5,2.5-9.1,5.6-12.1C326.8,303.6,330.9,302.1,336.2,302.1L336.2,302.1z
	 M413.2,304.7c3.2,0,6.1,0.6,8.6,1.8c4.9,2.2,8.7,6.3,10.5,11.4c0.9,2.5,1.4,5.2,1.4,7.9c0,2.7-0.5,5.4-1.4,7.9
	c-1.8,5.1-5.6,9.2-10.5,11.4c-2.7,1.2-5.6,1.8-8.6,1.8c-3.2,0-6-0.6-8.5-1.8c-4.9-2.2-8.7-6.3-10.5-11.4c-0.9-2.5-1.4-5.2-1.3-7.9
	c0-2.7,0.5-5.4,1.4-7.9C397,309.9,404.7,304.6,413.2,304.7L413.2,304.7z M545.3,329.5h3.6v3.9c0,5-1.4,8.9-4.3,11.8
	c-2.8,2.9-7.3,4.3-13.3,4.3c-1.4,0-2.9-0.2-4.4-0.5c-1.4-0.3-2.7-0.9-3.9-1.7c-1.2-0.8-2.1-1.7-2.8-2.9c-0.8-1.3-1.2-2.7-1.1-4.2
	c0-2.5,0.9-4.5,2.8-5.9c2-1.5,4.3-2.6,6.7-3.2c2.7-0.7,5.5-1.2,8.5-1.4C540.2,329.6,542.9,329.5,545.3,329.5L545.3,329.5z
	 M545.3,329.5"/>
</svg>
